<svg width="1110" height="377" viewBox="0 0 1110 377" fill="none" xmlns="http://www.w3.org/2000/svg">
<g clip-path="url(#clip0_10_2)">
<path d="M376.5 188.3C376.5 292.3 292.2 376.6 188.2 376.6C84.2 376.6 0 292.2 0 188.3C0 84.4 84.3 0 188.3 0C292.3 0 376.5 84.3 376.5 188.3Z" fill="#00C896"/>
<path d="M282.3 114.1V90.8001H257.8C238.2 76.8001 214.2 68.6001 188.3 68.6001C162.4 68.6001 138.4 76.8001 118.8 90.8001H94.3001V114.1C78.2001 134.5 68.6001 160.2 68.6001 188.2C68.6001 229 89.1001 265.1 120.3 286.7C122.3 288.1 124.3 289.3 126.4 290.4L188.3 323.2L250.2 290.4C252.5 289.2 254.6 287.9 256.7 286.4C287.7 264.8 308 228.8 308 188.1C308 160.3 298.4 134.5 282.3 114.1Z" fill="white"/>
<path d="M277.3 237.5V96.1001H99.2998V237.5C99.2998 258 110.6 276.9 128.8 286.5L188.3 318L247.8 286.5C265.9 276.8 277.3 258 277.3 237.5ZM220.3 283.3C220.3 280.2 222.8 277.6 226 277.6C229.1 277.6 231.7 280.1 231.7 283.3C231.7 286.4 229.2 289 226 289C222.9 289 220.3 286.5 220.3 283.3ZM182.3 301.9C182.3 298.8 184.8 296.2 188 296.2C191.1 296.2 193.7 298.7 193.7 301.9C193.7 305.1 191.2 307.6 188 307.6C184.8 307.6 182.3 305 182.3 301.9ZM164.4 276.2L188.3 263.3L212.1 276.2L188.2 288.8L164.4 276.2ZM144.4 283.3C144.4 280.2 146.9 277.6 150.1 277.6C153.2 277.6 155.8 280.1 155.8 283.3C155.8 286.4 153.2 289 150.1 289C147 288.9 144.4 286.4 144.4 283.3ZM125 229.1L166.2 251.4L142.1 264.4L140.8 263.7C136 261.2 132 257.4 129.3 252.8C126.5 248.2 125 242.9 125 237.5V229.1ZM106.4 225C106.4 221.9 108.9 219.3 112.1 219.3C115.2 219.3 117.8 221.8 117.8 225C117.8 228.1 115.2 230.7 112.1 230.7C108.9 230.7 106.4 228.1 106.4 225ZM106.4 186.7C106.4 183.6 108.9 181 112.1 181C115.2 181 117.8 183.5 117.8 186.7C117.8 189.8 115.2 192.4 112.1 192.4C108.9 192.4 106.4 189.8 106.4 186.7ZM106.4 148.4C106.4 145.3 108.9 142.7 112.1 142.7C115.2 142.7 117.8 145.2 117.8 148.4C117.8 151.5 115.2 154.1 112.1 154.1C108.9 154 106.4 151.5 106.4 148.4ZM117.9 109.1C117.9 112.2 115.4 114.8 112.2 114.8C109.1 114.8 106.5 112.3 106.5 109.1C106.5 106 109.1 103.4 112.2 103.4C115.4 103.4 117.9 106 117.9 109.1ZM124.1 259.2C124.1 262.3 121.6 264.9 118.4 264.9C115.2 264.9 112.7 262.4 112.7 259.2C112.7 256.1 115.2 253.5 118.4 253.5C121.6 253.5 124.1 256.1 124.1 259.2ZM168.5 109.1C168.5 112.2 166 114.8 162.8 114.8C159.7 114.8 157.1 112.3 157.1 109.1C157.1 106 159.6 103.4 162.8 103.4C165.9 103.4 168.5 106 168.5 109.1ZM219 109.1C219 112.2 216.5 114.8 213.3 114.8C210.2 114.8 207.6 112.3 207.6 109.1C207.6 106 210.1 103.4 213.3 103.4C216.5 103.4 219 106 219 109.1ZM251.6 205.3L188.3 239.4L125 205.2V121.8H251.6V205.3ZM251.6 237.5C251.6 242.9 250.1 248.2 247.4 252.8C244.6 257.4 240.6 261.2 235.9 263.7L234.6 264.4L210.5 251.4L251.6 229.2V237.5ZM258.1 253.7C261.2 253.7 263.8 256.2 263.8 259.4C263.8 262.5 261.3 265.1 258.1 265.1C255 265.1 252.4 262.6 252.4 259.4C252.5 256.2 255 253.7 258.1 253.7ZM269.6 109.1C269.6 112.2 267.1 114.8 263.9 114.8C260.8 114.8 258.2 112.3 258.2 109.1C258.2 106 260.7 103.4 263.9 103.4C267.1 103.4 269.6 106 269.6 109.1ZM269.6 148.5C269.6 151.6 267.1 154.2 263.9 154.2C260.8 154.2 258.2 151.7 258.2 148.5C258.2 145.4 260.7 142.8 263.9 142.8C267.1 142.8 269.6 145.4 269.6 148.5ZM269.6 186.8C269.6 189.9 267.1 192.5 263.9 192.5C260.8 192.5 258.2 190 258.2 186.8C258.2 183.7 260.7 181.1 263.9 181.1C267.1 181.1 269.6 183.7 269.6 186.8ZM269.6 225.1C269.6 228.2 267.1 230.8 263.9 230.8C260.8 230.8 258.2 228.3 258.2 225.1C258.2 222 260.7 219.4 263.9 219.4C267.1 219.4 269.6 222 269.6 225.1ZM188.3 218.6L190.7 220.3H206.5L209.4 218.8V198.9L207.8 197.3V217.5L203.9 215.6C201.5 214.4 199.2 213.8 197.1 213.8C195 213.8 192.7 214.4 190.3 215.6L188.3 216.6L186.3 215.6C183.9 214.4 181.6 213.8 179.5 213.8C177.4 213.8 175.1 214.4 172.7 215.6L168.8 217.5V197.1L167.3 198.9V218.9L170.2 220.4H186L188.3 218.6ZM202 183.3L214.1 192.5C214.9 186 215.7 179.6 216.4 173.6L199.1 160.5C200 167.8 200.9 175.5 201.9 183.2L202 183.3ZM219.2 160.8C217.7 173.5 216.2 186.2 214.6 198.8C222.6 202.7 231.7 202.7 239.7 198.8C238.1 186.1 236.5 173.5 235.1 160.8C229.8 160 224.5 160 219.2 160.8ZM225.9 172.1C225.9 171.2 226.2 170.3 226.7 169.5C226.9 169.2 227 169.1 227.2 168.8C227.4 169.1 227.5 169.2 227.7 169.5C228.2 170.3 228.5 171.1 228.5 172.1V178.3C227.7 178.3 226.9 178.3 226 178.3L225.9 172.1ZM235.1 159.5C235.9 158.4 236.6 157.3 237.5 156.2C230.7 154.4 223.7 154.4 217 156.2C217.8 157.3 218.6 158.4 219.4 159.5C224.5 158.6 229.8 158.6 235.1 159.5ZM227.8 153.5C231 153.5 234.3 154 237.4 155V148.8C236.2 148.3 235.1 148 233.9 147.7C233.5 148.5 233.1 149.3 232.7 150.1C231.9 150 231.1 149.8 230.3 149.7C229.9 148.8 229.5 147.8 229.1 146.9C227.9 146.8 226.6 146.8 225.4 146.9C225 147.8 224.6 148.8 224.2 149.7C223.4 149.8 222.6 149.9 221.8 150.1C221.4 149.3 221 148.5 220.6 147.7C219.4 148 218.2 148.4 217.1 148.8V155C220.4 153.9 224.1 153.4 227.8 153.5ZM217.3 167.3L215.1 165.7L214.6 167.1L212.6 165.6L211.8 163.2L209.8 161.7L209 162.9L207 161.4L206.2 159L204.2 157.5L203.4 158.7L201.4 157.2L200.6 154.8L198.4 153.2C198.4 153.2 198.9 157.4 199.1 159L216.8 172.3C216.8 171.2 217.3 167.3 217.3 167.3ZM196.2 143.9C197 142.8 197.7 141.7 198.6 140.6C191.8 138.8 184.8 138.8 178.1 140.6C178.9 141.7 179.7 142.8 180.5 143.9C185.6 143.1 190.9 143.1 196.2 143.9ZM187.6 137.9C191.2 137.8 195 138.3 198.5 139.4V133.2C197.3 132.7 196.2 132.4 194.9 132.1C194.5 132.9 194.1 133.7 193.7 134.5C192.9 134.4 192.1 134.2 191.3 134.1C190.9 133.2 190.5 132.2 190.1 131.3C188.9 131.2 187.7 131.2 186.4 131.3C186 132.2 185.6 133.2 185.2 134.1C184.4 134.2 183.6 134.3 182.8 134.5C182.4 133.7 182 132.9 181.6 132.1C180.4 132.4 179.2 132.8 178 133.2V139.4C181.1 138.5 184.4 138 187.6 137.9ZM178.2 153L176 154.6L175.2 157L173.2 158.5L172.4 157.3L170.4 158.8L169.6 161.2L167.6 162.7L166.8 161.5L164.8 163L164 165.4L162 166.9L161.4 165.5L159.2 167.1C159.2 167.1 159.7 171 159.8 171.9L177.5 158.6C177.7 157.2 178.2 153 178.2 153ZM157.3 159.5C158.1 158.4 158.8 157.3 159.7 156.2C152.9 154.4 145.9 154.4 139.2 156.2C140 157.3 140.8 158.4 141.6 159.5C146.7 158.6 152 158.6 157.3 159.5ZM148.8 153.5C152.4 153.4 156.2 153.9 159.7 155V148.8C158.5 148.3 157.4 148 156.1 147.7C155.7 148.5 155.3 149.3 154.9 150.1C154.1 150 153.3 149.8 152.5 149.7C152.1 148.8 151.7 147.8 151.3 146.9C150.1 146.8 148.9 146.8 147.6 146.9C147.2 147.8 146.8 148.8 146.4 149.7C145.6 149.8 144.8 149.9 144 150.1C143.6 149.3 143.2 148.5 142.8 147.7C141.6 148 140.4 148.4 139.2 148.8V155C142.2 154 145.5 153.5 148.8 153.5ZM141.5 160.8C140 173.5 138.5 186.2 136.9 198.8C144.9 202.7 154 202.7 162 198.8C160.4 186.1 158.9 173.5 157.4 160.8C152 160 146.7 160 141.5 160.8ZM148.1 172.1C148.1 171.2 148.4 170.3 148.9 169.5C149.1 169.2 149.2 169.1 149.3 168.8C149.5 169.1 149.6 169.2 149.7 169.5C150.2 170.3 150.5 171.1 150.5 172.1V178.3C149.7 178.3 148.9 178.3 148 178.3L148.1 172.1ZM162.3 192.4L174.4 183.2V183C175.4 175.3 176.3 167.6 177.2 160.3L160 173.5C160.7 179.6 161.5 186 162.3 192.4ZM186.8 214.4L187.4 214.7V192.7C184.5 191.3 182 190.6 179.4 190.6C176.6 190.6 173.9 191.4 170.8 193L170.1 193.4V215.3L172 214.3C174.6 213 177.1 212.4 179.4 212.4C181.8 212.5 184.2 213.1 186.8 214.4ZM197 190.7C194.4 190.7 191.9 191.4 189 192.8V214.8L189.6 214.5C192.2 213.2 194.7 212.6 197 212.6C199.3 212.6 201.8 213.2 204.4 214.5L206.3 215.5V193.6L205.6 193.2C202.5 191.4 199.7 190.7 197 190.7ZM188.2 171.5C190 172.6 191.5 174.1 192.6 176C193.6 177.8 194.2 179.9 194.2 182V183.9C194.9 184.4 195.2 184.6 195.9 185.2C197.6 184.7 199.2 184.1 200.8 183.3C199.2 170.6 197.6 157.9 196.2 145.3C190.9 144.5 185.6 144.5 180.4 145.3C178.9 158 177.4 170.7 175.8 183.3C177.4 184.1 179 184.7 180.7 185.2C181.4 184.7 181.7 184.5 182.4 183.9V182C182.3 177.7 184.6 173.7 188.2 171.5ZM189.5 162.8C188.7 162.8 187.9 162.8 187 162.8V156.6C187 155.7 187.3 154.8 187.8 154C188 153.7 188.1 153.6 188.2 153.3C188.4 153.6 188.5 153.7 188.6 154C189.1 154.7 189.4 155.6 189.4 156.6L189.5 162.8Z" fill="#003C3C"/>
<path d="M342.1 218.7C342 219.3 341.6 219.8 341.1 220.2C340.6 220.6 340 220.6 339.4 220.5C338.8 220.4 338.3 220.1 337.9 219.5C337.5 219 337.4 218.4 337.6 217.8C337.7 217.2 338.1 216.7 338.6 216.3C339.1 216 339.7 215.9 340.3 216C340.9 216.1 341.4 216.4 341.8 216.9C342.1 217.4 342.2 218 342.1 218.7ZM322.4 249.3L324.1 245.2C324.5 244.2 325.1 243.5 326 243.2C326.8 242.9 327.6 242.9 328.5 243.3C329.4 243.7 330 244.3 330.3 245.1C330.6 245.9 330.5 246.8 330.1 247.8L328.4 251.8L322.4 249.3ZM342.8 248.9L344.6 244.8L333.1 248.2C333.5 247.2 333.6 246.2 333.6 245.2C333.5 244 333.2 243 332.5 242.1C331.8 241.2 331 240.5 329.8 240C328.7 239.5 327.6 239.4 326.5 239.5C325.4 239.6 324.4 240.1 323.5 240.9C322.6 241.6 321.9 242.6 321.3 243.9L318.1 251.4L338.2 259.9L339.6 256.6L331 253L331.4 252.1L342.8 248.9ZM326.5 280.7C325.6 282.1 324.5 283.1 323.1 283.7C321.7 284.4 320.3 284.7 318.8 284.6C317.3 284.5 315.9 284 314.5 283.1L303.3 275.6L305.3 272.6L316.5 280.1C317.4 280.7 318.3 281 319.2 281.1C320.1 281.2 320.9 281 321.7 280.6C322.5 280.2 323.1 279.6 323.7 278.8C324.2 278 324.5 277.2 324.6 276.3C324.7 275.4 324.5 274.6 324.1 273.8C323.7 273 323.1 272.3 322.2 271.7L311 264.2L313 261.2L324.2 268.7C325.6 269.6 326.6 270.7 327.2 272.1C327.8 273.4 328.1 274.8 328 276.3C327.9 277.9 327.4 279.3 326.5 280.7ZM311.7 299.8L296.5 284.2L294.7 285.9L298.2 301.4L282.8 297.4L281 299.1L296.2 314.7L298.8 312.2L289.1 302.2L300.1 305.1L301.9 303.4L299.4 292.3L309.1 302.3L311.7 299.8ZM281 325.9L268.6 308L271.6 306L284 323.9L281 325.9ZM260.9 337.8C259.4 338.5 257.9 338.8 256.4 338.7C254.9 338.6 253.5 338.1 252.3 337.3C251.1 336.5 250.1 335.3 249.3 333.8L243.4 321.6L246.6 320L252.5 332.1C253 333.1 253.6 333.8 254.3 334.3C255 334.8 255.8 335.1 256.7 335.1C257.6 335.1 258.4 335 259.3 334.5C260.2 334.1 260.9 333.5 261.3 332.8C261.8 332.1 262.1 331.3 262.1 330.4C262.1 329.5 262 328.6 261.5 327.7L255.6 315.5L258.8 313.9L264.7 326.1C265.4 327.6 265.7 329.1 265.6 330.5C265.5 332 265 333.3 264.2 334.6C263.5 336.1 262.4 337.1 260.9 337.8ZM231.3 344.3C230.4 345.2 229.2 345.8 227.8 346.2C226.8 346.5 225.7 346.5 224.8 346.4C223.9 346.3 222.9 345.9 222.1 345.4C221.3 344.9 220.6 344.2 220 343.4C219.4 342.6 219 341.6 218.7 340.5C218.3 339 218.3 337.6 218.6 336.3C218.9 335 219.6 333.9 220.5 333C221.4 332.1 222.6 331.5 224 331.1C225.1 330.8 226.1 330.8 227 330.9C227.9 331 228.9 331.4 229.7 331.9C230.5 332.4 231.2 333.1 231.8 333.9C232.4 334.7 232.8 335.7 233.1 336.8C233.5 338.3 233.5 339.7 233.2 341C233.2 341 233.2 341.1 233.2 341.2L228.5 338.4L226.8 341.2L231.6 344.1C231.5 344.1 231.4 344.2 231.3 344.3ZM240.3 345.4L236.2 342.9C236.5 342.1 236.8 341.2 236.9 340.3C237.1 338.8 237 337.4 236.7 335.8C236.4 334.2 235.7 333 234.8 331.8C233.9 330.6 232.8 329.7 231.6 328.9C230.4 328.1 229 327.7 227.6 327.4C226.2 327.2 224.7 327.2 223.2 327.6C221.7 328 220.4 328.6 219.2 329.5C218 330.4 217.1 331.4 216.4 332.7C215.7 333.9 215.2 335.3 215 336.7C214.8 338.2 214.9 339.6 215.2 341.1C215.6 342.6 216.2 343.9 217.1 345.1C218 346.3 219.1 347.2 220.3 348C221.5 348.8 222.9 349.2 224.3 349.5C225.7 349.8 227.2 349.7 228.7 349.3C230.2 348.9 231.5 348.3 232.7 347.4C233.4 346.9 234 346.2 234.6 345.6L238.7 348.1L240.3 345.4ZM204.9 353.5L204.7 350.2L193.6 350.8L193.3 344.5L203.3 344L203.1 340.9L193.1 341.4L192.8 335.6L203.7 335L203.5 331.7L189 332.5L190.1 354.3L204.9 353.5ZM168.5 353.3C166.8 353.1 165.4 352.6 164.3 351.8C163.2 351 162.2 350 161.4 348.7L164.1 346.6C164.6 347.5 165.2 348.3 166 348.9C166.8 349.5 167.8 349.9 169.1 350C170.3 350.1 171.3 350 172 349.6C172.8 349.2 173.2 348.6 173.3 347.7C173.4 347 173.3 346.4 173 345.9C172.7 345.4 172.2 345 171.7 344.6C171.2 344.2 170.5 343.9 169.8 343.6C169.1 343.3 168.4 342.9 167.7 342.5C167 342.1 166.4 341.7 165.8 341.1C165.2 340.6 164.8 339.9 164.5 339.2C164.2 338.4 164.1 337.5 164.3 336.4C164.4 335.1 164.9 334.1 165.6 333.2C166.3 332.3 167.3 331.8 168.4 331.4C169.5 331.1 170.8 331 172.1 331.1C173.5 331.3 174.8 331.7 175.8 332.4C176.8 333.1 177.7 333.9 178.3 334.9L175.6 337C175.1 336.2 174.5 335.6 173.9 335.2C173.3 334.8 172.5 334.5 171.7 334.4C170.6 334.3 169.8 334.4 169.1 334.7C168.4 335 168.1 335.6 168 336.4C167.9 337.1 168 337.6 168.4 338.1C168.7 338.6 169.2 338.9 169.8 339.3C170.4 339.6 171 340 171.7 340.3C172.4 340.6 173.1 341 173.8 341.4C174.5 341.8 175.1 342.3 175.7 342.8C176.3 343.4 176.7 344 176.9 344.8C177.2 345.6 177.3 346.6 177.1 347.7C176.9 349.6 176 351.1 174.5 352.1C172.7 353.2 170.8 353.6 168.5 353.3ZM138.2 323.7L125.2 332.9L123.1 317.2L120.8 316.2L112.1 336.2L115.4 337.6L121 324.8L122.6 336.1L124.9 337.1L134.2 330.6L128.6 343.4L131.9 344.8L140.6 324.8L138.2 323.7ZM110 313.4L111.9 310.7L100 302.4L87.5002 320.2L99.5002 328.6L101.4 325.9L92.3002 319.6L95.9002 314.4L104.1 320.2L105.9 317.6L97.7002 311.8L101 307L110 313.4ZM70.7002 305.8C69.6002 304.7 68.8002 303.4 68.3002 302.1C67.8002 300.7 67.5002 299.3 67.6002 297.9C67.6002 296.5 67.9002 295.1 68.5002 293.8C69.1002 292.5 69.9002 291.3 71.1002 290.2C72.2002 289.1 73.4002 288.3 74.8002 287.7C76.2002 287.1 77.5002 286.8 79.0002 286.9C80.4002 286.9 81.8002 287.2 83.2002 287.7C84.6002 288.2 85.8002 289.1 86.9002 290.2C88.1002 291.5 89.0002 292.7 89.5002 294.1C90.0002 295.4 90.2002 296.8 90.2002 298.2H86.8002C86.9002 297.2 86.7002 296.3 86.3002 295.4C85.9002 294.5 85.3002 293.6 84.5002 292.7C83.7002 291.9 82.9002 291.4 82.0002 291C81.1002 290.6 80.2002 290.5 79.2002 290.5C78.3002 290.5 77.3002 290.7 76.4002 291.1C75.5002 291.5 74.6002 292.1 73.8002 292.9C73.0002 293.7 72.4002 294.6 71.9002 295.5C71.5002 296.4 71.2002 297.4 71.2002 298.3C71.2002 299.2 71.3002 300.2 71.7002 301.1C72.1002 302 72.6002 302.8 73.4002 303.6C74.3002 304.6 75.3002 305.2 76.2002 305.6C77.1002 306 78.1002 306.1 79.0002 306.1V309.5C77.6002 309.5 76.2002 309.2 74.8002 308.7C73.2002 308 72.0002 307 70.7002 305.8ZM49.5002 279.6C48.6002 278.2 48.1002 276.8 48.0002 275.3C47.9002 273.8 48.2002 272.4 48.9002 271C49.6002 269.6 50.6002 268.5 52.0002 267.6L63.3002 260.2L65.3002 263.2L54.0002 270.6C53.1002 271.2 52.5002 271.9 52.1002 272.7C51.7002 273.5 51.5002 274.3 51.6002 275.2C51.7002 276.1 52.0002 276.9 52.5002 277.7C53.0002 278.5 53.7002 279.1 54.4002 279.5C55.2002 279.9 56.0002 280 56.9002 280C57.8002 279.9 58.7002 279.6 59.5002 279L70.8002 271.6L72.8002 274.6L61.5002 282C60.1002 282.9 58.7002 283.4 57.2002 283.5C55.7002 283.6 54.3002 283.3 53.0002 282.6C51.5002 282 50.4002 281 49.5002 279.6ZM54.8002 242.7L53.4002 239.4L33.4002 248L38.9002 260.7L41.9002 259.4L37.8002 250L54.8002 242.7ZM34.5002 218.7C34.4002 218.1 34.5002 217.5 34.8002 217C35.2002 216.5 35.6002 216.2 36.3002 216.1C37.0002 216 37.5002 216.1 38.0002 216.4C38.5002 216.7 38.8002 217.2 39.0002 217.9C39.1002 218.5 39.0002 219.1 38.7002 219.6C38.4002 220.1 37.9002 220.4 37.2002 220.6C36.6002 220.7 36.0002 220.6 35.5002 220.3C34.9002 219.9 34.6002 219.4 34.5002 218.7ZM350.2 185.6C349.6 186.2 348.8 186.6 347.9 186.6C346.9 186.6 346.1 186.4 345.5 185.8C344.9 185.2 344.6 184.4 344.5 183.3L344.4 178.9L350.9 178.7L351 183.1C351.1 184.2 350.8 185 350.2 185.6ZM353.9 175L332.1 175.8L332.2 179.4L341.4 179.1V180L332.4 187.8L332.6 192.3L341.6 184.3C341.7 185.4 342 186.4 342.5 187.2C343 188.2 343.8 189 344.8 189.5C345.8 190 346.9 190.3 348.1 190.2C349.3 190.2 350.4 189.8 351.3 189.2C352.2 188.6 352.9 187.8 353.4 186.7C353.9 185.6 354.2 184.4 354.1 183.1L353.9 175ZM331.7 153.8L337.8 152.5L339.9 162.3L343 161.6L340.9 151.8L346.6 150.6L348.9 161.3L352.1 160.6L349 146.4L327.7 151L330.8 165.3L334 164.6L331.7 153.8ZM342 134.4L345 133.2L338.2 116.8L335.2 118L337.9 124.6L320.8 131.7L322.2 135L339.3 127.9L342 134.4ZM316.4 103.3L321.8 111.8L324.5 110.1L319.1 101.6L324 98.5L329.8 107.7L332.6 106L324.9 93.7L306.5 105.3L314.3 117.7L317.1 116L311.2 106.6L316.4 103.3ZM314 79.7L304.3 81.1L306.4 71.4L303.5 68.3L300.9 81.1L287.3 82.9L290 85.9L300.7 84.5L298.2 94.8L301 97.9L304.1 84.6L316.7 82.8L314 79.7ZM285.4 68.9L287.3 66.4L279.3 60.4L282.8 55.7L291.6 62.2L293.5 59.6L281.7 51L268.7 68.5L280.5 77.2L282.5 74.6L273.6 68L277.3 63L285.4 68.9ZM256.3 40.3L257.5 37.3L244.5 32L236.3 52.2L239.6 53.5L243.1 44.8L252.3 48.5L253.5 45.5L244.3 41.8L246.5 36.3L256.3 40.3ZM216.3 43.7C217.8 44 219.1 43.9 220.3 43.5C221.5 43.1 222.5 42.3 223.4 41.3C224.3 40.3 224.8 39 225.1 37.5C225.3 36.4 225.3 35.3 225.2 34.3C225 33.3 224.7 32.4 224.2 31.6C223.7 30.8 223 30.1 222.2 29.6C221.4 29.1 220.4 28.7 219.4 28.5C218 28.2 216.6 28.3 215.4 28.7C214.2 29.1 213.2 29.9 212.3 30.9C211.5 31.9 210.9 33.2 210.6 34.7C210.4 35.8 210.4 36.9 210.5 37.9C210.7 38.9 211 39.8 211.5 40.6C212 41.4 212.7 42.1 213.5 42.6C214.3 43.1 215.2 43.5 216.3 43.7ZM215.7 47.1C214.2 46.8 212.8 46.2 211.6 45.4C210.4 44.6 209.4 43.6 208.6 42.3C207.8 41.1 207.2 39.8 207 38.3C206.7 36.9 206.7 35.4 207 33.8C207.3 32.3 207.9 30.9 208.7 29.7C209.5 28.5 210.5 27.5 211.7 26.6C212.9 25.8 214.2 25.2 215.6 24.9C217 24.6 218.5 24.6 220 24.9C221.5 25.2 222.9 25.8 224.1 26.6C225.3 27.4 226.3 28.4 227.1 29.6C227.9 30.8 228.5 32.1 228.7 33.6C228.9 35.1 229 36.5 228.7 38.1C228.4 39.6 227.8 41 227 42.2C226.2 43.4 225.2 44.4 224 45.3C222.8 46.2 221.5 46.7 220.1 47C218.6 47.3 217.2 47.4 215.7 47.1ZM186.4 22L182.3 22.3L177.3 31.6L171 23.1L166.9 23.4L175.7 35.1L176.4 44.6L180 44.4L179.3 34.8L186.4 22ZM159 28L158.2 24.8L140.9 29L141.7 32.2L148.6 30.5L152.9 48.5L156.4 47.7L152.1 29.7L159 28ZM134.7 54.4L126.8 34.1L130.1 32.8L138 53.1L134.7 54.4ZM117.7 63C116.2 63.8 114.8 64.3 113.4 64.3C112 64.3 110.7 64.1 109.2 63.5L110.1 60.2C111 60.7 112 60.9 113 60.9C114 60.9 115 60.6 116.1 60C117.2 59.4 117.9 58.7 118.2 57.9C118.6 57.1 118.6 56.3 118.1 55.6C117.7 55 117.3 54.5 116.7 54.3C116.1 54.1 115.5 54 114.8 54C114.1 54 113.4 54.1 112.6 54.3C111.8 54.4 111.1 54.6 110.3 54.7C109.5 54.8 108.7 54.8 108 54.7C107.2 54.6 106.5 54.3 105.8 53.9C105.1 53.4 104.5 52.7 104 51.8C103.4 50.7 103.1 49.6 103.2 48.5C103.3 47.4 103.7 46.4 104.4 45.4C105.1 44.5 106 43.7 107.2 43C108.4 42.3 109.7 41.9 111 41.9C112.3 41.9 113.4 42 114.4 42.4L113.5 45.7C112.6 45.4 111.8 45.2 111 45.3C110.2 45.3 109.5 45.6 108.7 46C107.8 46.5 107.1 47.1 106.8 47.8C106.5 48.5 106.5 49.2 106.9 49.8C107.2 50.4 107.7 50.8 108.2 50.9C108.7 51.1 109.3 51.1 110 51.1C110.7 51.1 111.4 51 112.1 50.8C112.9 50.7 113.6 50.5 114.4 50.4C115.2 50.3 116 50.3 116.8 50.5C117.6 50.7 118.3 50.9 119 51.4C119.7 51.9 120.3 52.6 120.9 53.6C121.8 55.3 122 57 121.4 58.7C121.1 60.4 119.8 61.8 117.7 63ZM82.5002 64.4L85.9002 61.6C86.8002 60.9 87.6002 60.6 88.5002 60.7C89.4002 60.8 90.1002 61.2 90.6002 61.9C91.2002 62.7 91.5002 63.5 91.4002 64.3C91.3002 65.1 90.8002 65.9 90.0002 66.6L86.6002 69.4L82.5002 64.4ZM100.8 73.6L104.3 70.7L92.5002 68.3C93.3002 67.5 93.9002 66.7 94.3002 65.9C94.8002 64.8 94.9002 63.8 94.8002 62.7C94.7002 61.6 94.2002 60.6 93.4002 59.6C92.6002 58.7 91.7002 58 90.7002 57.6C89.7002 57.2 88.6002 57.2 87.4002 57.4C86.3002 57.6 85.1002 58.2 84.1002 59L77.8002 64.1L91.6002 81L94.4002 78.7L88.6002 71.5L89.3002 70.9L100.8 73.6ZM83.2002 89.3L80.7002 87.2L73.6002 95.7L68.8002 91.7L75.3002 84L72.9002 82L66.4002 89.7L62.0002 85.9L69.0002 77.5L66.5002 75.4L57.2002 86.5L73.9002 100.5L83.2002 89.3ZM50.4002 95.5L48.5002 98.8L59.0002 112.2L42.2002 109.5L40.2002 112.9L63.4002 116.3L64.7002 114.2L50.4002 95.5ZM54.6002 134.5L34.5002 126.1L35.9002 122.8L56.0002 131.2L54.6002 134.5ZM50.4002 145.5L29.2002 140.3L28.4002 143.8L43.0002 147.4L25.6002 155L25.0002 157.4L46.2002 162.6L47.0002 159.1L32.4002 155.5L49.7002 147.9L50.4002 145.5ZM44.6002 181.6C44.5002 183.2 44.1002 184.7 43.3002 186C42.5002 187.3 41.4002 188.2 40.1002 189C38.8002 189.8 37.3002 190 35.7002 189.9L22.2002 189.3L22.4002 185.7L35.9002 186.3C37.0002 186.3 37.9002 186.2 38.7002 185.8C39.5002 185.4 40.1002 184.8 40.6002 184.1C41.1002 183.3 41.3002 182.5 41.4002 181.6C41.5002 180.6 41.3002 179.8 40.9002 179C40.5002 178.2 39.9002 177.6 39.2002 177.1C38.4002 176.6 37.5002 176.4 36.5002 176.3L23.0002 175.7L23.2002 172.1L36.7002 172.7C38.3002 172.8 39.8002 173.2 41.0002 174C42.2002 174.8 43.2002 175.9 43.9002 177.2C44.4002 178.4 44.7002 179.9 44.6002 181.6Z" fill="#003C3C"/>
<path d="M647.8 83.3C647.8 78.5 651.7 74.6 656.5 74.6C661.3 74.6 665.2 78.5 665.2 83.3C665.2 88.1 661.3 92 656.5 92C651.7 92 647.8 88.1 647.8 83.3ZM459.6 85V138.9C459.6 165.4 474.5 180 500.9 180C527.7 180 542.7 165.5 542.7 138.3V85C542.7 79.5 545.4 74.3 549.9 71.2L553.7 68.5H521.9L526.3 71.2C531.2 74.3 534.2 79.6 534.2 85.4V135.2C534.2 146.7 534.2 171.8 504.8 171.8C477.9 171.8 474.5 151.7 474.5 135.2V84.9C474.5 79.4 477.2 74.3 481.6 71.2L485.4 68.6H448.8L452.6 71.3C456.9 74.4 459.6 79.5 459.6 85ZM650.1 124.3V162.8C650.1 167.7 647.9 172.4 644.2 175.6L641.6 177.8H672.3L669.5 175.6C665.4 172.4 662.9 167.5 662.9 162.3V100.5L641.5 108.9L644.9 112.2C648.2 115.4 650.1 119.8 650.1 124.3ZM914.9 173.2C907 173.2 897.9 164.9 895.1 158.4L885.7 169.4C890.4 175.4 903.8 180 912.8 180C930.9 180 943.5 171.1 943.5 156.8C943.5 144.9 936.7 139.7 925.4 135.2L917.6 132C908.4 128.3 901.8 124.5 901.8 117.4C901.8 110.3 907.1 106.9 914.5 107C926.9 107.1 933.1 120 933.1 120C935.8 114.9 937 112.6 940.1 106.8C934.4 103.8 925.6 100.1 916.3 100.1C899.7 100.1 888.9 108.3 888.9 121.6C888.9 134.8 899 139.7 908.7 143.6L916.8 146.9C924.3 150 929.7 153 929.7 160.4C929.8 169.2 923.9 173.2 914.9 173.2ZM686.3 121.5L707.9 177.8C708 177.8 717.9 177.8 718 177.8L740.5 121.4C742 117.7 744 114.2 746.5 111C749 107.9 751.9 105.1 755.2 102.8H730.6L730.7 102.9C734 107.3 734.8 113.1 732.9 118.3L718.5 156.3C717.6 158.7 716.8 161 716.1 163.4C715.4 161.1 714.7 158.7 713.8 156.3L699.1 118.3C698.4 116.4 698 114.4 698 112.5C698 109.1 699.1 105.7 701.2 102.8H671.6C678.2 107.4 683.4 113.9 686.3 121.5ZM965.2 92C970 92 973.9 88.1 973.9 83.3C973.9 78.5 970 74.6 965.2 74.6C960.4 74.6 956.5 78.5 956.5 83.3C956.5 88.1 960.4 92 965.2 92ZM751.6 128.8C756.2 112.5 772 100.7 788.7 100.7C805.4 100.7 820 112.5 824.6 128.8C825.3 131.1 825.7 133.6 826 136H767.3C767.3 136.1 767.3 136.2 767.3 136.3V136.6C767.3 136.9 767.3 137.1 767.2 137.4C767.2 137.7 767.2 138 767.2 138.3C767.2 138.6 767.2 138.8 767.2 139.1C767.2 139.4 767.2 139.6 767.2 139.9C767.2 140.2 767.2 140.4 767.2 140.7C767.9 156.9 777.9 169.9 791.3 171C791.9 171 792.5 171.1 793.1 171.1C804.4 171.1 814.1 162.5 817.9 150.4H825C820.8 167.4 806.4 179.9 789.3 179.9C768.9 179.9 750.1 162.1 750.1 140.2C750.1 138.7 750.2 137.3 750.3 135.9C750.4 133.5 750.9 131.1 751.6 128.8ZM768.3 128.8H808.5C805.6 116.9 799.4 108.1 790 107.3C789.5 107.3 788.9 107.2 788.4 107.2C778.3 107.2 771.5 116.2 768.3 128.8ZM832.2 175.6L829.6 177.8H861.2L858 175.6C853.5 172.5 850.8 167.3 850.8 161.8V125.4C864.3 112.6 880.6 117.1 880.6 117.1V99.9C858.3 99.9 849.9 117.6 849.9 117.6L848.4 100.5L830.2 108.9L833.7 112.8C836.5 115.9 838 119.9 838 124V162.8C838.1 167.7 835.9 172.4 832.2 175.6ZM759.1 290.6L743.2 267.7L759 248.2C763.1 243.1 767.8 238.5 772.9 234.5L774.9 232.9H747.8C752.5 236.9 753.3 243.8 749.6 248.7C746.1 253.4 742.6 258.1 739 262.8L729.1 248.2C725.9 243.4 726.6 237 730.8 233.1L731.1 232.8H697.6L698.1 233.2C704.4 237.6 709.8 243.1 714.1 249.4L730.2 272.7L714.5 292.7C710.3 298.1 705.4 302.9 700 307.1L699.1 307.8H726.1L726 307.7C720.9 303.8 719.9 296.6 723.7 291.5C727.2 286.8 730.7 282 734.2 277.3L745 292.9C748.2 297.5 747.7 303.7 743.7 307.7L743.6 307.8H777L776.9 307.7C770 303.3 763.9 297.4 759.1 290.6ZM971.6 162.3V100.5L950.2 108.9L953.6 112.2C956.9 115.4 958.7 119.7 958.7 124.3V162.8C958.7 167.7 956.5 172.4 952.8 175.6L950.2 177.8H981L978.2 175.6C974 172.4 971.6 167.5 971.6 162.3ZM918.1 268.4C918.1 268.7 918.1 268.9 918.1 269.2C918.1 269.5 918.1 269.7 918.1 270C918.1 270.3 918.1 270.5 918.1 270.8C918.8 287 928.8 300 942.2 301.1C942.8 301.1 943.4 301.2 944 301.2C955.3 301.2 965 292.6 968.8 280.5H975.9C971.7 297.5 957.3 310 940.2 310C919.8 310 901 292.2 901 270.3C901 268.8 901.1 267.4 901.2 266C901.4 263.5 901.9 261.1 902.6 258.8C907.2 242.5 923 230.7 939.7 230.7C956.4 230.7 971 242.5 975.6 258.8C976.3 261.1 976.7 263.6 977 266H918.3C918.3 266.1 918.3 266.2 918.3 266.3V266.6C918.3 266.9 918.3 267.1 918.3 267.4C918.1 267.9 918.1 268.1 918.1 268.4ZM919.3 258.9H959.5C956.5 247 950.4 238.2 940.9 237.4C940.4 237.4 939.9 237.3 939.3 237.3C929.3 237.3 922.4 246.3 919.3 258.9ZM1084.6 102.7C1089.4 107.1 1091.1 113.9 1089 120C1084.8 132 1074.1 162.6 1073.1 166.1C1072.2 162.7 1056.9 120.7 1056.9 120.7C1054.5 114.2 1056.5 107 1061.9 102.6L1033.4 102.5H1010.4V75.8L997.3 87.3V102.6H984.6V110.5H997.3V162.6C997.3 170.7 1001.4 179.1 1015.2 179.1C1021.5 179.1 1028.5 176.8 1034.4 172.2L1033.1 168.5C1016.7 172.3 1010.5 169.6 1010.5 158.6V110.6H1038.9L1064.2 177.8H1069C1069 177.8 1058.9 200 1042.7 200L1048.9 211C1063.8 206.7 1073.6 184.5 1082.2 161.6L1099.4 115.6C1100.8 111.9 1103 108.6 1105.9 106L1109.4 102.8L1084.6 102.7ZM877.6 289V241.1H896.8V233H877.6V206.2L864.5 217.7V233H851.8V241.1H864.5V293.1C864.5 301.2 868.6 309.6 882.4 309.6C888.7 309.6 895.7 307.3 901.6 302.7L900.3 299C883.8 302.8 877.6 300 877.6 289ZM523.6 259.7C523.6 285.8 502.7 309.3 476 309.3C457.8 309.3 448.1 299.8 448.1 280.3C448.1 254.2 469 230.7 495.7 230.7C514 230.7 523.6 240.2 523.6 259.7ZM508.6 252.2C508.6 242.2 505.5 236.6 495.7 236.7C476.9 236.8 463.3 263.9 463.3 287.9C463.3 297.9 466.4 303.5 476.2 303.4C494.9 303.2 508.6 276.1 508.6 252.2ZM1002.9 247.4L1001.4 230.3L983.2 238.7L986.7 242.6C989.5 245.7 991 249.7 991 253.8V292.6C991 297.5 988.8 302.2 985.1 305.4L982.5 307.6H1014.1L1010.9 305.4C1006.4 302.3 1003.7 297.1 1003.7 291.6V255.2C1017.2 242.4 1033.5 246.9 1033.5 246.9V229.6C1011.3 229.7 1002.9 247.4 1002.9 247.4ZM543.9 223.7C543.3 226.7 542.8 229.7 542.2 232.8H527.9V240.1L527.8 240.4H540.8L528.7 304.3C526.5 316 523.8 326.1 510.7 340.9L513.4 343.2C529.5 333.7 538.1 323.4 540.9 308.5L554 240.5L576.6 240.3V232.8H555.5C559.7 211.2 560.7 194 572.3 194C576.1 194 583 196.2 588.3 200L593.5 190.4C591.1 187.9 584.2 186.1 579.8 186.1C561.9 186.1 548.1 201.4 543.9 223.7ZM605.5 175.6L602.9 177.8H633.2L630.5 175.6C626.6 172.4 624.3 167.6 624.3 162.6V125.6C624.3 110.8 619 100.5 601.7 100.5C592.7 100.5 583.9 104.5 577.7 112.1C577.1 108.1 576.2 100.5 576.2 100.5L556.6 108.9L560.3 112.6C563.4 115.7 565.2 120 565.2 124.4V162.7C565.2 167.6 563 172.3 559.3 175.5L556.7 177.7H587.4L584.6 175.6C580.4 172.4 578 167.5 578 162.2V122.1C580.1 117.9 587.4 110.8 596 110.8C608.3 110.8 611.6 116.9 611.6 127.9V162.5C611.6 167.7 609.3 172.4 605.5 175.6ZM790.9 268.4C790.9 268.7 790.9 268.9 790.9 269.2C790.9 269.5 790.9 269.7 790.9 270C790.9 270.3 790.9 270.5 790.9 270.8C791.6 287 801.6 300 815 301.1C815.6 301.1 816.2 301.2 816.8 301.2C828.1 301.2 837.8 292.6 841.6 280.5H848.7C844.5 297.5 830.1 310 813 310C792.6 310 773.8 292.2 773.8 270.3C773.8 268.8 773.9 267.4 774 266C774.2 263.5 774.7 261.1 775.4 258.8C780 242.5 795.8 230.7 812.5 230.7C829.2 230.7 843.8 242.5 848.4 258.8C849.1 261.1 849.5 263.6 849.8 266H791C791 266.1 791 266.2 791 266.3V266.6C791 266.9 791 267.1 790.9 267.4C790.9 267.9 790.9 268.1 790.9 268.4ZM792.1 258.9H832.3C829.4 247 823.2 238.2 813.8 237.4C813.3 237.4 812.7 237.3 812.2 237.3C802.1 237.3 795.2 246.3 792.1 258.9ZM654.9 300.9C650.7 300.9 645.2 300.9 638.2 300.9L638.4 252.3H652.2C657.3 252.3 662.3 252.9 667.3 254L681.5 257.2V241.8L666.5 244.9C661.9 245.9 657.3 246.3 652.6 246.3H638.2V205C646.1 205 652.2 205 656.7 205C662.8 205 668.8 206.4 674.3 209.1L691.1 217.3L689.4 198.6H612.4L616.2 201.3C620.7 204.4 623.4 209.6 623.4 215.1V291.5C623.4 297 620.7 302.1 616.2 305.2L612.4 307.9H691.9L693.2 288.4L676.1 296.3C669.3 299.3 662.2 300.9 654.9 300.9Z" fill="#003C3C"/>
</g>
<defs>
<clipPath id="clip0_10_2">
<rect width="1109.4" height="376.5" fill="white"/>
</clipPath>
</defs>
</svg>
